<?xml version="1.0" standalone="no"?>
<!DOCTYPE svg PUBLIC "-//W3C//DTD SVG 20010904//EN"
 "http://www.w3.org/TR/2001/REC-SVG-20010904/DTD/svg10.dtd">
<svg version="1.0" xmlns="http://www.w3.org/2000/svg"
 width="512.000000pt" height="512.000000pt" viewBox="0 0 512.000000 512.000000"
 preserveAspectRatio="xMidYMid meet">
<metadata>
Created by potrace 1.14, written by Peter Selinger 2001-2017
</metadata>
<g transform="translate(0.000000,512.000000) scale(0.100000,-0.100000)"
fill="#000000" stroke="none">
<path d="M2218 3355 c-2 -1 -48 -5 -103 -8 -127 -8 -244 -23 -405 -53 -47 -9
-96 -18 -110 -21 -104 -19 -417 -109 -435 -125 -5 -4 -15 -8 -22 -8 -8 0 -64
-22 -126 -50 -116 -51 -129 -55 -237 -65 -36 -3 -76 -8 -90 -10 -14 -2 -54 -7
-90 -10 -36 -3 -76 -8 -90 -10 -14 -2 -50 -6 -81 -9 -31 -3 -72 -8 -90 -10
-19 -3 -61 -8 -94 -11 -33 -4 -65 -11 -72 -17 -7 -6 -13 -29 -13 -52 0 -40 -5
-47 -80 -120 -44 -43 -80 -81 -80 -84 0 -3 16 -85 34 -181 19 -97 37 -187 39
-201 32 -176 128 -272 304 -302 53 -9 66 -8 87 5 33 22 53 13 76 -33 47 -92
183 -188 296 -209 186 -35 385 58 467 218 27 53 39 59 66 32 l21 -21 1094 0
c1149 0 1123 -1 1114 41 -2 7 4 14 12 16 10 2 23 -16 39 -52 47 -109 179 -210
305 -234 188 -35 384 56 468 218 27 52 44 61 64 32 15 -21 20 -21 315 -21
l299 0 12 25 c16 35 -4 55 -55 55 l-40 0 52 54 c28 30 51 61 51 68 0 7 -18 31
-41 54 l-41 42 1 111 c1 62 -3 120 -9 130 -30 57 -290 178 -545 254 -108 33
-329 88 -401 101 -15 3 -50 10 -78 15 -28 6 -64 12 -81 15 -16 3 -43 8 -60 11
-16 3 -53 10 -82 15 -29 5 -71 22 -95 37 -200 129 -541 269 -773 319 -52 11
-75 15 -135 24 -36 6 -76 13 -90 16 -25 6 -466 14 -472 9z"/>
</g>
</svg>
